<mxfile host="www.draw.io" modified="2020-01-31T02:55:24.098Z" agent="Mozilla/5.0 (Windows NT 10.0; Win64; x64) AppleWebKit/537.36 (KHTML, like Gecko) Chrome/79.0.3945.130 Safari/537.36" etag="46EWCcYo5aPdmQMJ8EqO" version="12.6.2" type="github">
  <diagram id="w4qV1CDAtVCVDt34NwIW" name="Page-1">
    <mxGraphModel dx="776" dy="433" grid="1" gridSize="10" guides="1" tooltips="1" connect="1" arrows="1" fold="1" page="1" pageScale="1" pageWidth="850" pageHeight="1100" math="0" shadow="0">
      <root>
        <mxCell id="0"/>
        <mxCell id="1" parent="0"/>
        <mxCell id="DjwqiDjGVG0wHeYq5pMp-166" value="" style="verticalLabelPosition=bottom;verticalAlign=top;html=1;shadow=0;dashed=0;strokeWidth=1;strokeColor=none;shape=rect;fillColor=#0099cc;" vertex="1" parent="1">
          <mxGeometry x="23" y="758" width="177" height="32" as="geometry"/>
        </mxCell>
        <mxCell id="DjwqiDjGVG0wHeYq5pMp-165" value="" style="verticalLabelPosition=bottom;verticalAlign=top;html=1;shadow=0;dashed=0;strokeWidth=1;strokeColor=none;shape=rect;fillColor=#0099cc;" vertex="1" parent="1">
          <mxGeometry x="650" y="348" width="190" height="32" as="geometry"/>
        </mxCell>
        <mxCell id="DjwqiDjGVG0wHeYq5pMp-164" value="" style="verticalLabelPosition=bottom;verticalAlign=top;html=1;shadow=0;dashed=0;strokeWidth=1;strokeColor=none;shape=rect;fillColor=#0099cc;" vertex="1" parent="1">
          <mxGeometry x="325" y="340" width="195" height="30" as="geometry"/>
        </mxCell>
        <mxCell id="DjwqiDjGVG0wHeYq5pMp-163" value="" style="verticalLabelPosition=bottom;verticalAlign=top;html=1;shadow=0;dashed=0;strokeWidth=1;strokeColor=none;shape=rect;fillColor=#0099cc;" vertex="1" parent="1">
          <mxGeometry x="10" y="340" width="190" height="37.5" as="geometry"/>
        </mxCell>
        <mxCell id="DjwqiDjGVG0wHeYq5pMp-1" value="" style="verticalLabelPosition=bottom;verticalAlign=top;html=1;shadow=0;dashed=0;strokeWidth=1;shape=mxgraph.android.phone2;strokeColor=#c0c0c0;" vertex="1" parent="1">
          <mxGeometry width="210" height="410" as="geometry"/>
        </mxCell>
        <mxCell id="DjwqiDjGVG0wHeYq5pMp-2" value="Click Calendar" style="whiteSpace=wrap;html=1;shape=mxgraph.basic.roundRectCallout;dx=30;dy=15;size=5;boundedLbl=1;" vertex="1" parent="1">
          <mxGeometry x="210" y="210" width="100" height="60" as="geometry"/>
        </mxCell>
        <mxCell id="DjwqiDjGVG0wHeYq5pMp-3" value="Today&#39;s APoD Image" style="whiteSpace=wrap;html=1;shape=mxgraph.basic.roundRectCallout;dx=30;dy=15;size=5;boundedLbl=1;" vertex="1" parent="1">
          <mxGeometry x="205" y="50" width="120" height="60" as="geometry"/>
        </mxCell>
        <mxCell id="DjwqiDjGVG0wHeYq5pMp-4" value="" style="verticalLabelPosition=bottom;shadow=0;dashed=0;align=center;html=1;verticalAlign=top;strokeWidth=1;shape=mxgraph.mockup.graphics.bubbleChart;strokeColor=#6c8ebf;strokeColor2=none;strokeColor3=#666666;fillColor2=#008cff;fillColor3=#dddddd;fillColor=#dae8fc;" vertex="1" parent="1">
          <mxGeometry x="10" y="70" width="190" height="270" as="geometry"/>
        </mxCell>
        <mxCell id="DjwqiDjGVG0wHeYq5pMp-6" value="NASA APoD" style="strokeWidth=1;html=1;shadow=0;dashed=0;shape=mxgraph.android.action_bar;fillColor=#1A1A1A;strokeColor=#c0c0c0;strokeWidth=2;fontColor=#FFFFFF;" vertex="1" parent="1">
          <mxGeometry x="10" y="40" width="190" height="30" as="geometry"/>
        </mxCell>
        <mxCell id="DjwqiDjGVG0wHeYq5pMp-7" value="" style="verticalLabelPosition=bottom;verticalAlign=top;html=1;shadow=0;dashed=0;strokeWidth=1;shape=mxgraph.android.phone2;strokeColor=#c0c0c0;" vertex="1" parent="1">
          <mxGeometry x="325" y="12" width="200" height="390" as="geometry"/>
        </mxCell>
        <mxCell id="DjwqiDjGVG0wHeYq5pMp-8" value="" style="verticalLabelPosition=bottom;shadow=0;dashed=0;align=center;html=1;verticalAlign=top;strokeWidth=1;shape=mxgraph.mockup.graphics.bubbleChart;strokeColor=none;strokeColor2=none;strokeColor3=#666666;fillColor2=#008cff;fillColor3=#dddddd;" vertex="1" parent="1">
          <mxGeometry x="335" y="80" width="185" height="260" as="geometry"/>
        </mxCell>
        <mxCell id="DjwqiDjGVG0wHeYq5pMp-10" value="" style="html=1;shadow=0;dashed=0;align=center;verticalAlign=middle;shape=mxgraph.arrows2.sharpArrow2;dy1=0.67;dx1=18;dx2=18;dy3=0.15;dx3=27;notch=0;" vertex="1" parent="1">
          <mxGeometry x="180" y="270" width="140" height="70" as="geometry"/>
        </mxCell>
        <mxCell id="DjwqiDjGVG0wHeYq5pMp-11" value="" style="shape=ellipse;fillColor=#FF4081;strokeColor=none;shadow=1;aspect=fixed;" vertex="1" parent="1">
          <mxGeometry x="160" y="290" width="36" height="36" as="geometry"/>
        </mxCell>
        <mxCell id="DjwqiDjGVG0wHeYq5pMp-14" value="" style="dashed=0;html=1;shape=mxgraph.gmdl.calendar;shadow=0;" vertex="1" parent="1">
          <mxGeometry x="168" y="298" width="22" height="20" as="geometry"/>
        </mxCell>
        <mxCell id="DjwqiDjGVG0wHeYq5pMp-63" value="" style="shape=rect;fillColor=#ffffff;strokeColor=#eeeeee;shadow=1;" vertex="1" parent="1">
          <mxGeometry x="328" y="80" width="192" height="260" as="geometry"/>
        </mxCell>
        <mxCell id="DjwqiDjGVG0wHeYq5pMp-64" value="Thu, Apr 13" style="shape=rect;fillColor=#009688;fontColor=#ffffff;strokeColor=none;align=left;spacing=16;fontSize=33;verticalAlign=bottom;resizeWidth=1;" vertex="1" parent="DjwqiDjGVG0wHeYq5pMp-63">
          <mxGeometry width="190" height="80" relative="1" as="geometry"/>
        </mxCell>
        <mxCell id="DjwqiDjGVG0wHeYq5pMp-65" value="2017" style="text;verticalAlign=middle;fontColor=#FFFFFF;spacingTop=6;spacing=16;fontSize=15;textOpacity=70;resizeWidth=1;" vertex="1" parent="DjwqiDjGVG0wHeYq5pMp-64">
          <mxGeometry width="190.00000000000009" height="40" relative="1" as="geometry"/>
        </mxCell>
        <mxCell id="DjwqiDjGVG0wHeYq5pMp-66" value="&lt;" style="text;verticalAlign=middle;fontColor=#4D4D4D;spacingTop=6;spacing=16;fontSize=20;align=center;resizeWidth=1;" vertex="1" parent="DjwqiDjGVG0wHeYq5pMp-63">
          <mxGeometry width="11.492604876320309" height="30" relative="1" as="geometry">
            <mxPoint x="10" y="77" as="offset"/>
          </mxGeometry>
        </mxCell>
        <mxCell id="DjwqiDjGVG0wHeYq5pMp-67" value="April 2017" style="text;verticalAlign=middle;fontColor=#4D4D4D;spacingTop=6;spacing=16;fontSize=13;align=center;fontStyle=1;resizeWidth=1;" vertex="1" parent="DjwqiDjGVG0wHeYq5pMp-63">
          <mxGeometry x="0.1463" width="65.06729794143348" height="20" relative="1" as="geometry">
            <mxPoint x="23.9137" y="80" as="offset"/>
          </mxGeometry>
        </mxCell>
        <mxCell id="DjwqiDjGVG0wHeYq5pMp-68" value="&gt;" style="text;verticalAlign=middle;fontColor=#4D4D4D;spacingTop=6;spacing=16;fontSize=20;align=center;resizeWidth=1;" vertex="1" parent="DjwqiDjGVG0wHeYq5pMp-63">
          <mxGeometry x="0.8537" width="7.336112779384462" height="30" relative="1" as="geometry">
            <mxPoint x="-26.8437" y="77" as="offset"/>
          </mxGeometry>
        </mxCell>
        <mxCell id="DjwqiDjGVG0wHeYq5pMp-69" value="S" style="text;verticalAlign=middle;align=center;fontColor=#808080;resizeWidth=1;" vertex="1" parent="DjwqiDjGVG0wHeYq5pMp-63">
          <mxGeometry width="18.77125463132317" height="40" relative="1" as="geometry">
            <mxPoint y="97" as="offset"/>
          </mxGeometry>
        </mxCell>
        <mxCell id="DjwqiDjGVG0wHeYq5pMp-70" value="M" style="text;verticalAlign=middle;align=center;fontColor=#808080;resizeWidth=1;" vertex="1" parent="DjwqiDjGVG0wHeYq5pMp-63">
          <mxGeometry x="0.1463" width="17.62199414369114" height="40" relative="1" as="geometry">
            <mxPoint y="97" as="offset"/>
          </mxGeometry>
        </mxCell>
        <mxCell id="DjwqiDjGVG0wHeYq5pMp-71" value="T" style="text;verticalAlign=middle;align=center;fontColor=#808080;resizeWidth=1;" vertex="1" parent="DjwqiDjGVG0wHeYq5pMp-63">
          <mxGeometry x="0.2896" width="17.62199414369114" height="40" relative="1" as="geometry">
            <mxPoint y="97" as="offset"/>
          </mxGeometry>
        </mxCell>
        <mxCell id="DjwqiDjGVG0wHeYq5pMp-72" value="W" style="text;verticalAlign=middle;align=center;fontColor=#808080;resizeWidth=1;" vertex="1" parent="DjwqiDjGVG0wHeYq5pMp-63">
          <mxGeometry x="0.4299" width="17.62199414369114" height="40" relative="1" as="geometry">
            <mxPoint x="-5.19" y="97" as="offset"/>
          </mxGeometry>
        </mxCell>
        <mxCell id="DjwqiDjGVG0wHeYq5pMp-73" value="T" style="text;verticalAlign=middle;align=center;fontColor=#808080;resizeWidth=1;" vertex="1" parent="DjwqiDjGVG0wHeYq5pMp-63">
          <mxGeometry x="0.5701" width="17.62199414369114" height="40" relative="1" as="geometry">
            <mxPoint x="-14.81" y="97" as="offset"/>
          </mxGeometry>
        </mxCell>
        <mxCell id="DjwqiDjGVG0wHeYq5pMp-74" value="F" style="text;verticalAlign=middle;align=center;fontColor=#808080;resizeWidth=1;" vertex="1" parent="DjwqiDjGVG0wHeYq5pMp-63">
          <mxGeometry x="0.7104" width="17.62199414369114" height="40" relative="1" as="geometry">
            <mxPoint x="-20.44" y="97" as="offset"/>
          </mxGeometry>
        </mxCell>
        <mxCell id="DjwqiDjGVG0wHeYq5pMp-75" value="S" style="text;verticalAlign=middle;align=center;fontColor=#808080;resizeWidth=1;" vertex="1" parent="DjwqiDjGVG0wHeYq5pMp-63">
          <mxGeometry x="0.8506" width="18.77125463132317" height="40" relative="1" as="geometry">
            <mxPoint x="-36.05" y="97" as="offset"/>
          </mxGeometry>
        </mxCell>
        <mxCell id="DjwqiDjGVG0wHeYq5pMp-76" value="1" style="text;verticalAlign=middle;align=center;fontColor=#4D4D4D;fontStyle=1;resizeWidth=1;" vertex="1" parent="DjwqiDjGVG0wHeYq5pMp-63">
          <mxGeometry x="0.8506" width="18.77125463132317" height="40" relative="1" as="geometry">
            <mxPoint x="-36.05" y="117" as="offset"/>
          </mxGeometry>
        </mxCell>
        <mxCell id="DjwqiDjGVG0wHeYq5pMp-77" value="2" style="text;verticalAlign=middle;align=center;fontColor=#4D4D4D;fontStyle=1;resizeWidth=1;" vertex="1" parent="DjwqiDjGVG0wHeYq5pMp-63">
          <mxGeometry width="18.77125463132317" height="40" relative="1" as="geometry">
            <mxPoint y="226" as="offset"/>
          </mxGeometry>
        </mxCell>
        <mxCell id="DjwqiDjGVG0wHeYq5pMp-78" value="3" style="text;verticalAlign=middle;align=center;fontColor=#4D4D4D;fontStyle=1;resizeWidth=1;" vertex="1" parent="DjwqiDjGVG0wHeYq5pMp-63">
          <mxGeometry x="0.1463" width="17.62199414369114" height="40" relative="1" as="geometry">
            <mxPoint y="226" as="offset"/>
          </mxGeometry>
        </mxCell>
        <mxCell id="DjwqiDjGVG0wHeYq5pMp-79" value="4" style="text;verticalAlign=middle;align=center;fontColor=#4D4D4D;fontStyle=1;resizeWidth=1;" vertex="1" parent="DjwqiDjGVG0wHeYq5pMp-63">
          <mxGeometry x="0.2896" width="17.62199414369114" height="40" relative="1" as="geometry">
            <mxPoint y="226" as="offset"/>
          </mxGeometry>
        </mxCell>
        <mxCell id="DjwqiDjGVG0wHeYq5pMp-80" value="5" style="text;verticalAlign=middle;align=center;fontColor=#4D4D4D;fontStyle=1;resizeWidth=1;" vertex="1" parent="DjwqiDjGVG0wHeYq5pMp-63">
          <mxGeometry x="0.4299" width="17.62199414369114" height="40" relative="1" as="geometry">
            <mxPoint y="226" as="offset"/>
          </mxGeometry>
        </mxCell>
        <mxCell id="DjwqiDjGVG0wHeYq5pMp-81" value="6" style="text;verticalAlign=middle;align=center;fontColor=#4D4D4D;fontStyle=1;resizeWidth=1;" vertex="1" parent="DjwqiDjGVG0wHeYq5pMp-63">
          <mxGeometry x="0.5701" width="17.62199414369114" height="40" relative="1" as="geometry">
            <mxPoint x="-4.81" y="137" as="offset"/>
          </mxGeometry>
        </mxCell>
        <mxCell id="DjwqiDjGVG0wHeYq5pMp-82" value="7" style="text;verticalAlign=middle;align=center;fontColor=#009688;fontStyle=1;resizeWidth=1;" vertex="1" parent="DjwqiDjGVG0wHeYq5pMp-63">
          <mxGeometry x="0.7104" width="17.62199414369114" height="40" relative="1" as="geometry">
            <mxPoint x="-20.44" y="137" as="offset"/>
          </mxGeometry>
        </mxCell>
        <mxCell id="DjwqiDjGVG0wHeYq5pMp-83" value="8" style="text;verticalAlign=middle;align=center;fontColor=#4D4D4D;fontStyle=1;resizeWidth=1;" vertex="1" parent="DjwqiDjGVG0wHeYq5pMp-63">
          <mxGeometry x="0.8506" width="18.77125463132317" height="40" relative="1" as="geometry">
            <mxPoint x="-36.05" y="137" as="offset"/>
          </mxGeometry>
        </mxCell>
        <mxCell id="DjwqiDjGVG0wHeYq5pMp-84" value="9" style="text;verticalAlign=middle;align=center;fontColor=#4D4D4D;fontStyle=1;resizeWidth=1;" vertex="1" parent="DjwqiDjGVG0wHeYq5pMp-63">
          <mxGeometry width="18.77125463132317" height="40" relative="1" as="geometry">
            <mxPoint x="59" y="190" as="offset"/>
          </mxGeometry>
        </mxCell>
        <mxCell id="DjwqiDjGVG0wHeYq5pMp-85" value="10" style="text;verticalAlign=middle;align=center;fontColor=#4D4D4D;fontStyle=1;resizeWidth=1;" vertex="1" parent="DjwqiDjGVG0wHeYq5pMp-63">
          <mxGeometry x="0.1463" width="17.62199414369114" height="40" relative="1" as="geometry">
            <mxPoint x="-8.47" y="210" as="offset"/>
          </mxGeometry>
        </mxCell>
        <mxCell id="DjwqiDjGVG0wHeYq5pMp-86" value="11" style="text;verticalAlign=middle;align=center;fontColor=#4D4D4D;fontStyle=1;resizeWidth=1;" vertex="1" parent="DjwqiDjGVG0wHeYq5pMp-63">
          <mxGeometry x="0.2896" width="17.62199414369114" height="40" relative="1" as="geometry">
            <mxPoint x="34.62" y="180" as="offset"/>
          </mxGeometry>
        </mxCell>
        <mxCell id="DjwqiDjGVG0wHeYq5pMp-87" value="12" style="text;verticalAlign=middle;align=center;fontColor=#4D4D4D;fontStyle=1;resizeWidth=1;" vertex="1" parent="DjwqiDjGVG0wHeYq5pMp-63">
          <mxGeometry x="0.4299" width="17.62199414369114" height="40" relative="1" as="geometry">
            <mxPoint y="180" as="offset"/>
          </mxGeometry>
        </mxCell>
        <mxCell id="DjwqiDjGVG0wHeYq5pMp-89" value="14" style="text;verticalAlign=middle;align=center;fontColor=#4D4D4D;fontStyle=1;resizeWidth=1;" vertex="1" parent="DjwqiDjGVG0wHeYq5pMp-63">
          <mxGeometry x="0.7104" width="17.62199414369114" height="40" relative="1" as="geometry">
            <mxPoint x="-14.41" y="210" as="offset"/>
          </mxGeometry>
        </mxCell>
        <mxCell id="DjwqiDjGVG0wHeYq5pMp-90" value="15" style="text;verticalAlign=middle;align=center;fontColor=#4D4D4D;fontStyle=1;resizeWidth=1;" vertex="1" parent="DjwqiDjGVG0wHeYq5pMp-63">
          <mxGeometry x="0.8506" width="18.77125463132317" height="40" relative="1" as="geometry">
            <mxPoint x="-30.73" y="150" as="offset"/>
          </mxGeometry>
        </mxCell>
        <mxCell id="DjwqiDjGVG0wHeYq5pMp-91" value="16" style="text;verticalAlign=middle;align=center;fontColor=#4D4D4D;fontStyle=1;resizeWidth=1;" vertex="1" parent="DjwqiDjGVG0wHeYq5pMp-63">
          <mxGeometry width="18.77125463132317" height="40" relative="1" as="geometry">
            <mxPoint x="139" y="190" as="offset"/>
          </mxGeometry>
        </mxCell>
        <mxCell id="DjwqiDjGVG0wHeYq5pMp-92" value="17" style="text;verticalAlign=middle;align=center;fontColor=#4D4D4D;fontStyle=1;resizeWidth=1;" vertex="1" parent="DjwqiDjGVG0wHeYq5pMp-63">
          <mxGeometry x="0.1463" width="17.62199414369114" height="40" relative="1" as="geometry">
            <mxPoint x="-27.47" y="160" as="offset"/>
          </mxGeometry>
        </mxCell>
        <mxCell id="DjwqiDjGVG0wHeYq5pMp-93" value="18" style="text;verticalAlign=middle;align=center;fontColor=#4D4D4D;fontStyle=1;resizeWidth=1;" vertex="1" parent="DjwqiDjGVG0wHeYq5pMp-63">
          <mxGeometry x="0.2896" width="17.62199414369114" height="40" relative="1" as="geometry">
            <mxPoint x="22.51" y="211" as="offset"/>
          </mxGeometry>
        </mxCell>
        <mxCell id="DjwqiDjGVG0wHeYq5pMp-94" value="19" style="text;verticalAlign=middle;align=center;fontColor=#4D4D4D;fontStyle=1;resizeWidth=1;" vertex="1" parent="DjwqiDjGVG0wHeYq5pMp-63">
          <mxGeometry x="0.4299" width="17.62199414369114" height="40" relative="1" as="geometry">
            <mxPoint x="-51.84" y="201" as="offset"/>
          </mxGeometry>
        </mxCell>
        <mxCell id="DjwqiDjGVG0wHeYq5pMp-95" value="20" style="text;verticalAlign=middle;align=center;fontColor=#4D4D4D;fontStyle=1;resizeWidth=1;" vertex="1" parent="DjwqiDjGVG0wHeYq5pMp-63">
          <mxGeometry x="0.5701" width="17.62199414369114" height="40" relative="1" as="geometry">
            <mxPoint x="-58.06" y="160" as="offset"/>
          </mxGeometry>
        </mxCell>
        <mxCell id="DjwqiDjGVG0wHeYq5pMp-96" value="21" style="text;verticalAlign=middle;align=center;fontColor=#4D4D4D;fontStyle=1;resizeWidth=1;" vertex="1" parent="DjwqiDjGVG0wHeYq5pMp-63">
          <mxGeometry x="0.7104" width="17.62199414369114" height="40" relative="1" as="geometry">
            <mxPoint x="-74.41" y="210" as="offset"/>
          </mxGeometry>
        </mxCell>
        <mxCell id="DjwqiDjGVG0wHeYq5pMp-97" value="22" style="text;verticalAlign=middle;align=center;fontColor=#4D4D4D;fontStyle=1;resizeWidth=1;" vertex="1" parent="DjwqiDjGVG0wHeYq5pMp-63">
          <mxGeometry x="0.8506" width="18.77125463132317" height="40" relative="1" as="geometry">
            <mxPoint x="-40.73" y="170" as="offset"/>
          </mxGeometry>
        </mxCell>
        <mxCell id="DjwqiDjGVG0wHeYq5pMp-98" value="23" style="text;verticalAlign=middle;align=center;fontColor=#4D4D4D;fontStyle=1;resizeWidth=1;" vertex="1" parent="DjwqiDjGVG0wHeYq5pMp-63">
          <mxGeometry width="18.77125463132317" height="40" relative="1" as="geometry">
            <mxPoint x="19" y="170" as="offset"/>
          </mxGeometry>
        </mxCell>
        <mxCell id="DjwqiDjGVG0wHeYq5pMp-99" value="24" style="text;verticalAlign=middle;align=center;fontColor=#4D4D4D;fontStyle=1;resizeWidth=1;" vertex="1" parent="DjwqiDjGVG0wHeYq5pMp-63">
          <mxGeometry x="0.1463" width="17.62199414369114" height="40" relative="1" as="geometry">
            <mxPoint x="21.53" y="140" as="offset"/>
          </mxGeometry>
        </mxCell>
        <mxCell id="DjwqiDjGVG0wHeYq5pMp-100" value="25" style="text;verticalAlign=middle;align=center;fontColor=#4D4D4D;fontStyle=1;resizeWidth=1;" vertex="1" parent="DjwqiDjGVG0wHeYq5pMp-63">
          <mxGeometry x="0.2896" width="17.62199414369114" height="40" relative="1" as="geometry">
            <mxPoint x="14.62" y="130" as="offset"/>
          </mxGeometry>
        </mxCell>
        <mxCell id="DjwqiDjGVG0wHeYq5pMp-101" value="26" style="text;verticalAlign=middle;align=center;fontColor=#4D4D4D;fontStyle=1;resizeWidth=1;" vertex="1" parent="DjwqiDjGVG0wHeYq5pMp-63">
          <mxGeometry x="0.4299" width="17.62199414369114" height="40" relative="1" as="geometry">
            <mxPoint x="18.27" y="130" as="offset"/>
          </mxGeometry>
        </mxCell>
        <mxCell id="DjwqiDjGVG0wHeYq5pMp-102" value="27" style="text;verticalAlign=middle;align=center;fontColor=#4D4D4D;fontStyle=1;resizeWidth=1;" vertex="1" parent="DjwqiDjGVG0wHeYq5pMp-63">
          <mxGeometry x="0.5701" width="17.62199414369114" height="40" relative="1" as="geometry">
            <mxPoint x="-88.06" y="140" as="offset"/>
          </mxGeometry>
        </mxCell>
        <mxCell id="DjwqiDjGVG0wHeYq5pMp-103" value="28" style="text;verticalAlign=middle;align=center;fontColor=#4D4D4D;fontStyle=1;resizeWidth=1;" vertex="1" parent="DjwqiDjGVG0wHeYq5pMp-63">
          <mxGeometry x="0.7104" width="17.62199414369114" height="40" relative="1" as="geometry">
            <mxPoint x="-84.41" y="150" as="offset"/>
          </mxGeometry>
        </mxCell>
        <mxCell id="DjwqiDjGVG0wHeYq5pMp-104" value="29" style="text;verticalAlign=middle;align=center;fontColor=#4D4D4D;fontStyle=1;resizeWidth=1;" vertex="1" parent="DjwqiDjGVG0wHeYq5pMp-63">
          <mxGeometry x="0.8506" width="18.77125463132317" height="40" relative="1" as="geometry">
            <mxPoint x="-80.73" y="170" as="offset"/>
          </mxGeometry>
        </mxCell>
        <mxCell id="DjwqiDjGVG0wHeYq5pMp-105" value="30" style="text;verticalAlign=middle;align=center;fontColor=#4D4D4D;fontStyle=1;resizeWidth=1;" vertex="1" parent="DjwqiDjGVG0wHeYq5pMp-63">
          <mxGeometry width="18.77125463132317" height="40" relative="1" as="geometry">
            <mxPoint x="19" y="118.5" as="offset"/>
          </mxGeometry>
        </mxCell>
        <mxCell id="DjwqiDjGVG0wHeYq5pMp-106" value="CANCEL" style="text;fontSize=13;fontColor=#009688;spacingTop=0;whiteSpace=wrap;spacing=0;verticalAlign=middle;align=center;fontStyle=1;" vertex="1" parent="DjwqiDjGVG0wHeYq5pMp-63">
          <mxGeometry x="1" y="1" width="51" height="29" relative="1" as="geometry">
            <mxPoint x="-158.79" y="-29" as="offset"/>
          </mxGeometry>
        </mxCell>
        <mxCell id="DjwqiDjGVG0wHeYq5pMp-107" value="OK" style="text;fontSize=13;fontColor=#009688;spacingTop=0;whiteSpace=wrap;spacing=0;verticalAlign=middle;align=center;fontStyle=1;" vertex="1" parent="DjwqiDjGVG0wHeYq5pMp-63">
          <mxGeometry x="1" y="1" width="61" height="29" relative="1" as="geometry">
            <mxPoint x="-68.79" y="-29" as="offset"/>
          </mxGeometry>
        </mxCell>
        <mxCell id="DjwqiDjGVG0wHeYq5pMp-114" value="" style="shape=ellipse;fillColor=#FF4081;strokeColor=none;shadow=1;aspect=fixed;" vertex="1" parent="DjwqiDjGVG0wHeYq5pMp-63">
          <mxGeometry x="151.99635200771198" y="143.84445514982173" width="17.62729106590733" height="17.62729106590733" as="geometry"/>
        </mxCell>
        <mxCell id="DjwqiDjGVG0wHeYq5pMp-116" value="Choose date" style="whiteSpace=wrap;html=1;shape=mxgraph.basic.roundRectCallout;dx=30;dy=15;size=5;boundedLbl=1;" vertex="1" parent="1">
          <mxGeometry x="530" y="150" width="100" height="60" as="geometry"/>
        </mxCell>
        <mxCell id="DjwqiDjGVG0wHeYq5pMp-117" value="" style="verticalLabelPosition=bottom;verticalAlign=top;html=1;shadow=0;dashed=0;strokeWidth=1;shape=mxgraph.android.phone2;strokeColor=#c0c0c0;" vertex="1" parent="1">
          <mxGeometry x="650" y="20" width="200" height="390" as="geometry"/>
        </mxCell>
        <mxCell id="DjwqiDjGVG0wHeYq5pMp-118" value="" style="verticalLabelPosition=bottom;shadow=0;dashed=0;align=center;html=1;verticalAlign=top;strokeWidth=1;shape=mxgraph.mockup.graphics.bubbleChart;strokeColor=#d79b00;strokeColor2=none;strokeColor3=#666666;fillColor2=#008cff;fillColor3=#dddddd;fillColor=#ffe6cc;" vertex="1" parent="1">
          <mxGeometry x="660" y="70" width="180" height="280" as="geometry"/>
        </mxCell>
        <mxCell id="DjwqiDjGVG0wHeYq5pMp-119" value="NASA APoD" style="strokeWidth=1;html=1;shadow=0;dashed=0;shape=mxgraph.android.action_bar;fillColor=#1A1A1A;strokeColor=#c0c0c0;strokeWidth=2;fontColor=#FFFFFF;" vertex="1" parent="1">
          <mxGeometry x="331.5" y="50" width="185" height="30" as="geometry"/>
        </mxCell>
        <mxCell id="DjwqiDjGVG0wHeYq5pMp-120" value="" style="html=1;shadow=0;dashed=0;align=center;verticalAlign=middle;shape=mxgraph.arrows2.sharpArrow;dy1=0.67;dx1=18;dx2=18;notch=0;" vertex="1" parent="1">
          <mxGeometry x="510" y="210" width="120" height="60" as="geometry"/>
        </mxCell>
        <mxCell id="DjwqiDjGVG0wHeYq5pMp-121" value="NASA APoD" style="strokeWidth=1;html=1;shadow=0;dashed=0;shape=mxgraph.android.action_bar;fillColor=#1A1A1A;strokeColor=#c0c0c0;strokeWidth=2;fontColor=#FFFFFF;" vertex="1" parent="1">
          <mxGeometry x="660" y="50" width="185" height="30" as="geometry"/>
        </mxCell>
        <mxCell id="DjwqiDjGVG0wHeYq5pMp-123" value="New APoD appears" style="whiteSpace=wrap;html=1;shape=mxgraph.basic.roundRectCallout;dx=30;dy=15;size=5;boundedLbl=1;" vertex="1" parent="1">
          <mxGeometry x="850" y="140" width="100" height="60" as="geometry"/>
        </mxCell>
        <mxCell id="DjwqiDjGVG0wHeYq5pMp-124" value="" style="shape=ellipse;fillColor=#FF4081;strokeColor=none;shadow=1;aspect=fixed;" vertex="1" parent="1">
          <mxGeometry x="790" y="300" width="40" height="40" as="geometry"/>
        </mxCell>
        <mxCell id="DjwqiDjGVG0wHeYq5pMp-129" value="" style="dashed=0;html=1;shape=mxgraph.gmdl.calendar;shadow=0;" vertex="1" parent="1">
          <mxGeometry x="800" y="310" width="20" height="20" as="geometry"/>
        </mxCell>
        <mxCell id="DjwqiDjGVG0wHeYq5pMp-130" value="" style="verticalLabelPosition=bottom;verticalAlign=top;html=1;shadow=0;dashed=0;strokeWidth=1;shape=mxgraph.android.phone2;strokeColor=#c0c0c0;" vertex="1" parent="1">
          <mxGeometry x="10" y="430" width="200" height="390" as="geometry"/>
        </mxCell>
        <mxCell id="DjwqiDjGVG0wHeYq5pMp-131" value="" style="verticalLabelPosition=bottom;shadow=0;dashed=0;align=center;html=1;verticalAlign=top;strokeWidth=1;shape=mxgraph.mockup.graphics.bubbleChart;strokeColor=#6c8ebf;strokeColor2=none;strokeColor3=#666666;fillColor2=#008cff;fillColor3=#dddddd;fillColor=#dae8fc;" vertex="1" parent="1">
          <mxGeometry x="20" y="492.5" width="180" height="265" as="geometry"/>
        </mxCell>
        <mxCell id="DjwqiDjGVG0wHeYq5pMp-133" value="NASA APoD" style="strokeWidth=1;html=1;shadow=0;dashed=0;shape=mxgraph.android.action_bar;fillColor=#1A1A1A;strokeColor=#c0c0c0;strokeWidth=2;fontColor=#FFFFFF;" vertex="1" parent="1">
          <mxGeometry x="20" y="462.5" width="185" height="30" as="geometry"/>
        </mxCell>
        <mxCell id="DjwqiDjGVG0wHeYq5pMp-134" value="" style="shape=ellipse;fillColor=#FF4081;strokeColor=none;shadow=1;aspect=fixed;" vertex="1" parent="1">
          <mxGeometry x="160" y="710" width="36" height="36" as="geometry"/>
        </mxCell>
        <mxCell id="DjwqiDjGVG0wHeYq5pMp-137" value="" style="dashed=0;html=1;shape=mxgraph.gmdl.calendar;shadow=0;" vertex="1" parent="1">
          <mxGeometry x="168" y="718" width="20" height="20" as="geometry"/>
        </mxCell>
        <mxCell id="DjwqiDjGVG0wHeYq5pMp-140" value="" style="verticalLabelPosition=bottom;verticalAlign=top;html=1;shadow=0;dashed=0;strokeWidth=1;shape=mxgraph.android.phone2;strokeColor=#c0c0c0;" vertex="1" parent="1">
          <mxGeometry x="324" y="430" width="200" height="390" as="geometry"/>
        </mxCell>
        <mxCell id="DjwqiDjGVG0wHeYq5pMp-148" value="NASA APoD" style="strokeWidth=1;html=1;shadow=0;dashed=0;shape=mxgraph.android.action_bar;fillColor=#1A1A1A;strokeColor=#c0c0c0;strokeWidth=2;fontColor=#FFFFFF;" vertex="1" parent="1">
          <mxGeometry x="332.5" y="462.5" width="185" height="30" as="geometry"/>
        </mxCell>
        <mxCell id="DjwqiDjGVG0wHeYq5pMp-150" value="" style="shape=ellipse;fillColor=#FF4081;strokeColor=none;shadow=1;aspect=fixed;" vertex="1" parent="1">
          <mxGeometry x="30" y="710" width="36" height="36" as="geometry"/>
        </mxCell>
        <mxCell id="DjwqiDjGVG0wHeYq5pMp-153" value="" style="dashed=0;html=1;shape=mxgraph.gmdl.reply;shadow=0;" vertex="1" parent="1">
          <mxGeometry x="38" y="720" width="20" height="18" as="geometry"/>
        </mxCell>
        <mxCell id="DjwqiDjGVG0wHeYq5pMp-154" value="" style="shape=ellipse;fillColor=#FF4081;strokeColor=none;shadow=1;aspect=fixed;" vertex="1" parent="1">
          <mxGeometry x="18" y="290" width="40" height="40" as="geometry"/>
        </mxCell>
        <mxCell id="DjwqiDjGVG0wHeYq5pMp-157" value="" style="dashed=0;html=1;shape=mxgraph.gmdl.reply;shadow=0;" vertex="1" parent="1">
          <mxGeometry x="28" y="299" width="20" height="18" as="geometry"/>
        </mxCell>
        <mxCell id="DjwqiDjGVG0wHeYq5pMp-158" value="" style="shape=ellipse;fillColor=#FF4081;strokeColor=none;shadow=1;aspect=fixed;" vertex="1" parent="1">
          <mxGeometry x="670" y="298" width="38" height="38" as="geometry"/>
        </mxCell>
        <mxCell id="DjwqiDjGVG0wHeYq5pMp-161" value="" style="dashed=0;html=1;shape=mxgraph.gmdl.reply;shadow=0;" vertex="1" parent="1">
          <mxGeometry x="678" y="306.5" width="22" height="21" as="geometry"/>
        </mxCell>
        <mxCell id="DjwqiDjGVG0wHeYq5pMp-162" value="" style="shape=image;html=1;verticalAlign=top;verticalLabelPosition=bottom;labelBackgroundColor=#ffffff;imageAspect=0;aspect=fixed;image=https://cdn0.iconfinder.com/data/icons/typicons-2/24/image-128.png" vertex="1" parent="1">
          <mxGeometry x="30" y="340" width="40" height="40" as="geometry"/>
        </mxCell>
        <mxCell id="DjwqiDjGVG0wHeYq5pMp-167" value="" style="shape=image;html=1;verticalAlign=top;verticalLabelPosition=bottom;labelBackgroundColor=#ffffff;imageAspect=0;aspect=fixed;image=https://cdn0.iconfinder.com/data/icons/typicons-2/24/image-128.png" vertex="1" parent="1">
          <mxGeometry x="50" y="758" width="36" height="36" as="geometry"/>
        </mxCell>
        <mxCell id="DjwqiDjGVG0wHeYq5pMp-168" value="" style="shape=image;html=1;verticalAlign=top;verticalLabelPosition=bottom;labelBackgroundColor=#ffffff;imageAspect=0;aspect=fixed;image=https://cdn0.iconfinder.com/data/icons/typicons-2/24/image-128.png" vertex="1" parent="1">
          <mxGeometry x="350" y="336" width="38" height="38" as="geometry"/>
        </mxCell>
        <mxCell id="DjwqiDjGVG0wHeYq5pMp-169" value="" style="shape=image;html=1;verticalAlign=top;verticalLabelPosition=bottom;labelBackgroundColor=#ffffff;imageAspect=0;aspect=fixed;image=https://cdn0.iconfinder.com/data/icons/typicons-2/24/image-128.png" vertex="1" parent="1">
          <mxGeometry x="690" y="345" width="38" height="38" as="geometry"/>
        </mxCell>
        <mxCell id="DjwqiDjGVG0wHeYq5pMp-206" value="" style="verticalLabelPosition=bottom;verticalAlign=top;html=1;shadow=0;dashed=0;strokeWidth=1;strokeColor=none;shape=rect;fillColor=#0099cc;" vertex="1" parent="1">
          <mxGeometry x="331.5" y="750" width="188.5" height="38" as="geometry"/>
        </mxCell>
        <mxCell id="DjwqiDjGVG0wHeYq5pMp-215" value="" style="verticalLabelPosition=bottom;verticalAlign=top;html=1;shape=mxgraph.basic.three_corner_round_rect;dx=6;" vertex="1" parent="1">
          <mxGeometry x="332.5" y="630" width="187.5" height="120" as="geometry"/>
        </mxCell>
        <mxCell id="DjwqiDjGVG0wHeYq5pMp-216" value="" style="ellipse;whiteSpace=wrap;html=1;aspect=fixed;" vertex="1" parent="1">
          <mxGeometry x="346.5" y="640" width="45" height="45" as="geometry"/>
        </mxCell>
        <mxCell id="DjwqiDjGVG0wHeYq5pMp-217" value="" style="ellipse;whiteSpace=wrap;html=1;aspect=fixed;" vertex="1" parent="1">
          <mxGeometry x="403.25" y="640" width="45" height="45" as="geometry"/>
        </mxCell>
        <mxCell id="DjwqiDjGVG0wHeYq5pMp-218" value="" style="ellipse;whiteSpace=wrap;html=1;aspect=fixed;" vertex="1" parent="1">
          <mxGeometry x="465" y="640" width="45" height="45" as="geometry"/>
        </mxCell>
        <mxCell id="DjwqiDjGVG0wHeYq5pMp-219" value="" style="ellipse;whiteSpace=wrap;html=1;aspect=fixed;" vertex="1" parent="1">
          <mxGeometry x="346.5" y="693" width="45" height="45" as="geometry"/>
        </mxCell>
        <mxCell id="DjwqiDjGVG0wHeYq5pMp-220" value="" style="ellipse;whiteSpace=wrap;html=1;aspect=fixed;" vertex="1" parent="1">
          <mxGeometry x="405" y="693" width="45" height="45" as="geometry"/>
        </mxCell>
        <mxCell id="DjwqiDjGVG0wHeYq5pMp-221" value="" style="ellipse;whiteSpace=wrap;html=1;aspect=fixed;" vertex="1" parent="1">
          <mxGeometry x="465" y="693" width="45" height="45" as="geometry"/>
        </mxCell>
        <mxCell id="DjwqiDjGVG0wHeYq5pMp-222" value="" style="dashed=0;outlineConnect=0;html=1;align=center;labelPosition=center;verticalLabelPosition=bottom;verticalAlign=top;shape=mxgraph.weblogos.google_hangout;fillColor=#4BA139;strokeColor=none" vertex="1" parent="1">
          <mxGeometry x="352.5" y="644" width="33" height="37" as="geometry"/>
        </mxCell>
        <mxCell id="DjwqiDjGVG0wHeYq5pMp-223" value="" style="dashed=0;outlineConnect=0;html=1;align=center;labelPosition=center;verticalLabelPosition=bottom;verticalAlign=top;shape=mxgraph.weblogos.gmail" vertex="1" parent="1">
          <mxGeometry x="409.6" y="654.1" width="30.8" height="16.8" as="geometry"/>
        </mxCell>
        <mxCell id="DjwqiDjGVG0wHeYq5pMp-225" value="" style="dashed=0;outlineConnect=0;html=1;align=center;labelPosition=center;verticalLabelPosition=bottom;verticalAlign=top;shape=mxgraph.weblogos.twitter;fillColor=#1DA1F2;strokeColor=none" vertex="1" parent="1">
          <mxGeometry x="470.5" y="648.5" width="34" height="28" as="geometry"/>
        </mxCell>
        <mxCell id="DjwqiDjGVG0wHeYq5pMp-226" value="" style="dashed=0;outlineConnect=0;html=1;align=center;labelPosition=center;verticalLabelPosition=bottom;verticalAlign=top;shape=mxgraph.weblogos.sms;fillColor=#48B921;strokeColor=none" vertex="1" parent="1">
          <mxGeometry x="470" y="699.25" width="35" height="32.5" as="geometry"/>
        </mxCell>
        <mxCell id="DjwqiDjGVG0wHeYq5pMp-227" value="" style="dashed=0;outlineConnect=0;html=1;align=center;labelPosition=center;verticalLabelPosition=bottom;verticalAlign=top;shape=mxgraph.weblogos.pinterest;fillColor=#BD081C;strokeColor=none" vertex="1" parent="1">
          <mxGeometry x="350" y="698.3" width="36.8" height="34.4" as="geometry"/>
        </mxCell>
        <mxCell id="DjwqiDjGVG0wHeYq5pMp-228" value="" style="dashed=0;outlineConnect=0;html=1;align=center;labelPosition=center;verticalLabelPosition=bottom;verticalAlign=top;shape=mxgraph.weblogos.github" vertex="1" parent="1">
          <mxGeometry x="410" y="696.75" width="35" height="35" as="geometry"/>
        </mxCell>
        <mxCell id="DjwqiDjGVG0wHeYq5pMp-229" value="" style="shape=image;html=1;verticalAlign=top;verticalLabelPosition=bottom;labelBackgroundColor=#ffffff;imageAspect=0;aspect=fixed;image=https://cdn0.iconfinder.com/data/icons/typicons-2/24/image-128.png" vertex="1" parent="1">
          <mxGeometry x="352.5" y="746" width="48" height="48" as="geometry"/>
        </mxCell>
        <mxCell id="DjwqiDjGVG0wHeYq5pMp-231" value="" style="html=1;shadow=0;dashed=0;align=center;verticalAlign=middle;shape=mxgraph.arrows2.arrow;dy=0.6;dx=40;direction=north;notch=0;" vertex="1" parent="1">
          <mxGeometry x="240" y="699.25" width="70" height="100" as="geometry"/>
        </mxCell>
        <mxCell id="DjwqiDjGVG0wHeYq5pMp-232" value="Click share button for share bar to come up" style="whiteSpace=wrap;html=1;shape=mxgraph.basic.roundRectCallout;dx=30;dy=15;size=5;boundedLbl=1;direction=east;flipH=1;" vertex="1" parent="1">
          <mxGeometry x="215" y="610.9" width="100" height="60" as="geometry"/>
        </mxCell>
        <mxCell id="DjwqiDjGVG0wHeYq5pMp-239" value="" style="shape=parallelMarker;direction=south;html=1;outlineConnect=0;fillColor=#000000;" vertex="1" parent="1">
          <mxGeometry x="146" y="769" width="14" height="14" as="geometry"/>
        </mxCell>
        <mxCell id="DjwqiDjGVG0wHeYq5pMp-240" value="" style="shape=parallelMarker;direction=south;html=1;outlineConnect=0;fillColor=#000000;" vertex="1" parent="1">
          <mxGeometry x="471" y="762" width="14" height="14" as="geometry"/>
        </mxCell>
        <mxCell id="DjwqiDjGVG0wHeYq5pMp-241" value="" style="shape=parallelMarker;direction=south;html=1;outlineConnect=0;fillColor=#000000;" vertex="1" parent="1">
          <mxGeometry x="154" y="350" width="14" height="14" as="geometry"/>
        </mxCell>
        <mxCell id="DjwqiDjGVG0wHeYq5pMp-242" value="" style="shape=parallelMarker;direction=south;html=1;outlineConnect=0;fillColor=#000000;" vertex="1" parent="1">
          <mxGeometry x="480" y="345" width="14" height="14" as="geometry"/>
        </mxCell>
        <mxCell id="DjwqiDjGVG0wHeYq5pMp-243" value="" style="shape=parallelMarker;direction=south;html=1;outlineConnect=0;fillColor=#000000;" vertex="1" parent="1">
          <mxGeometry x="800" y="356" width="14" height="14" as="geometry"/>
        </mxCell>
      </root>
    </mxGraphModel>
  </diagram>
</mxfile>
